<?xml version="1.0" encoding="utf-8"?>
<!-- Generator: Adobe Illustrator 24.2.1, SVG Export Plug-In . SVG Version: 6.00 Build 0)  -->
<svg version="1.1" id="Logo2" xmlns="http://www.w3.org/2000/svg" xmlns:xlink="http://www.w3.org/1999/xlink" x="0px" y="0px"
	 viewBox="0 0 93.8 18" style="enable-background:new 0 0 93.8 18;" xml:space="preserve">
<style type="text/css">
	.st0{fill:#FFFFFF;}
</style>
<g>
	<g>
		<path class="st0" d="M0.7,16.6c0-0.3,0.1-0.5,0.1-0.8c0-0.3,0-0.7,0-1c0-1,0-2,0-3c0-2.4-0.1-4.8-0.1-7.1c0-1.2,0-2.5,0-3.7
			c0-0.5,0.3-0.9,0.8-0.9c0.6-0.1,1.2,0.1,1.7,0.3c0.9,0.5,1.6,1.4,2,2.4c0.4,1.1,0.4,2.3,0.2,3.5c-0.2,1.6-0.8,3.1-2,4.1
			c0.9,0.3,1.7,1,2.1,1.8c0.4,0.7,0.4,1.6,0.2,2.4c-0.2,0.8-0.5,1.6-1.2,2c-0.8,0.5-1.8,0.6-2.7,0.6C1.4,17.2,0.7,17.3,0.7,16.6z
			 M4.3,6.2c0.1-1,0.2-2.1-0.2-3c-0.3-0.9-1.2-1.9-2.2-2c0,0.1,0,5.9,0,8.8C3.4,9.4,4,7.7,4.3,6.2z M3.8,15.8
			c0.6-0.3,0.8-1.1,0.9-1.7c0.1-0.6,0-1.3-0.6-1.8c-0.6-0.6-1.3-0.9-2.2-0.9c0,0.9,0.1,3.2,0,4.7C2.5,16,3.2,16,3.8,15.8z"/>
		<path class="st0" d="M11.3,17c-0.2-0.3-0.4-0.7-0.6-1c-0.5-0.8-0.9-1.7-1.4-2.5c0,0.6,0,1.3,0.1,1.9c0,0.5,0.1,1,0,1.5
			c0,0.4-0.4,0.9-0.9,0.6c-0.2-0.1-0.3-0.4-0.3-0.6c0-0.3,0-0.6,0-1c0-1.3-0.1-2.6-0.1-3.9C8,10.6,8,9.3,8,8S7.9,5.4,7.8,4.1
			c0-0.6,0-1.3,0-2c0-0.3,0-0.6,0-0.9c0-0.2,0-0.5,0.2-0.7c0.2-0.2,0.6-0.2,0.9-0.2c0.6,0,1.1,0.2,1.6,0.5c0.9,0.5,1.6,1.5,1.8,2.5
			c0.2,0.8,0.3,1.6,0.3,2.3c0.1,0.8,0.1,1.6-0.1,2.4c-0.1,0.7-0.5,1.4-0.9,2.1c-0.5,0.7-1.1,1.3-1.9,1.7c0.5,1.1,1.1,2.1,1.7,3.1
			c0.3,0.5,0.6,1,0.9,1.5c0.1,0.2,0.3,0.5,0.2,0.7c-0.1,0.2-0.3,0.4-0.6,0.4C11.7,17.5,11.4,17.2,11.3,17z M9.2,10.7
			c0.4-0.2,0.8-0.5,1.1-0.9c0.3-0.3,0.6-0.7,0.8-1.2c0.4-0.9,0.4-1.9,0.4-2.8c-0.1-1-0.1-2-0.6-2.9c-0.4-0.8-1-1.5-1.9-1.5
			C9,2,9,3.9,9,5C9.1,6.9,9.2,8.8,9.2,10.7z"/>
		<path class="st0" d="M14.6,17.5c-0.1-0.3,0-0.6,0-0.9c0-0.6,0-1.1,0-1.6c0-1.3,0-2.6,0-3.9c0-1.3,0.1-2.6,0.1-3.9
			c0-1.3-0.1-2.6-0.1-3.9c0-0.4,0-1,0.1-1.4c0.2-0.5,1-0.5,1.1,0.1c0.1,0.2,0,0.5,0,0.7c0,0.3,0,0.7,0,1c0,0.6,0,1.3,0.1,1.9
			c0.1,1.3,0,2.6,0,3.9c0,1.3-0.1,2.7-0.1,4c0,0.9,0,1.8,0,2.6c0,0.5,0.1,1.7-0.6,1.7C14.9,17.8,14.7,17.7,14.6,17.5z"/>
		<path class="st0" d="M22.7,17.4c-0.2-0.4-0.3-0.8-0.4-1.2c-0.3-1.1-0.7-2.2-1-3.3c-0.4-1.1-0.6-2.2-1-3.3
			c-0.3-1.1-0.7-2.2-1.1-3.2c0.1,2.4,0.1,4.8,0.2,7.2c0,1.2,0.1,2.3,0,3.5c0,0.5-0.3,0.9-0.8,0.7c-0.4-0.1-0.4-0.5-0.4-0.9
			c0-1.3,0-2.6,0-3.8c0-1.2,0-2.4-0.1-3.7c0-2.6-0.1-5.1-0.2-7.6c0-0.5-0.1-1.2,0.6-1.2c0.4,0,0.6,0.4,0.6,0.7
			c0.2,1.2,0.6,2.5,0.9,3.7c0.4,1.3,0.8,2.5,1.2,3.7c0.4,1.2,0.8,2.5,1.2,3.8c0.2,0.5,0.3,1,0.5,1.6c0-1.3-0.1-2.6-0.2-3.9
			c-0.1-1.3-0.1-2.6-0.2-3.9c0-1.2-0.1-2.3-0.2-3.5c0-0.3,0-0.6,0-0.9c0-0.2,0-0.5,0.1-0.7c0.3-0.5,1-0.3,1.1,0.2c0,0.3,0,0.6,0,0.9
			c0,0.3,0,0.7,0,1c0,0.6,0.1,1.3,0.1,2c0,1.3,0.1,2.7,0.2,4c0.1,2.4,0.3,4.8,0.3,7.2c0,0.6,0.2,1.7-0.6,1.7
			C23.1,18,22.8,17.7,22.7,17.4z"/>
		<path class="st0" d="M27.1,16.3c-0.6-1-0.9-2.1-1-3.3c-0.1-1.2-0.1-2.5,0-3.8c0-1.2,0.2-2.5,0.3-3.7c0.2-1.1,0.4-2.3,0.9-3.4
			c0.4-0.8,1.2-1.9,2.3-1.5c0.4,0.2,0.8,0.6,1,1c0.2,0.4,0,1-0.6,1c-0.2,0-0.4-0.2-0.5-0.4c-0.1-0.1-0.2-0.6-0.4-0.5
			c-0.2,0.1-0.4,0.4-0.5,0.5c-0.1,0.2-0.2,0.5-0.4,0.7c-0.4,1-0.6,2.2-0.7,3.3c-0.1,1.2-0.2,2.4-0.2,3.7c0,1.3,0,2.6,0.2,3.9
			c0.1,0.6,0.3,1.1,0.6,1.6c0.2,0.4,0.6,1,1.2,0.9c0.7-0.2,0.8-1.3,0.8-1.9c0-0.9,0-1.7-0.1-2.6c-0.3,0-0.6,0.1-0.9,0.1
			c-0.3,0-0.6,0-0.8-0.2c-0.4-0.4-0.1-1,0.5-1c0.3,0,0.6,0,0.9,0c0.3,0,0.6-0.2,0.9-0.2c0.6,0,0.6,0.8,0.6,1.2
			c0.1,1.1,0.2,2.3,0,3.4c-0.1,1-0.7,2.2-1.9,2.4c0,0-0.1,0-0.2,0C28.2,17.8,27.5,17.1,27.1,16.3z"/>
		<path class="st0" d="M37.4,17.4c-0.1-0.3,0-0.6,0-0.9c0.1-0.6,0.2-1.2,0.3-1.8c0.2-1.2,0.4-2.5,0.6-3.7c0.4-2.3,0.8-4.6,1.2-7
			c0.1-0.6,0.2-1.1,0.3-1.7c0.1-0.5,0.2-1.1,0.4-1.5c0.2-0.3,0.7-0.6,1-0.2c0.3,0.3,0.2,0.9,0.3,1.3c0.2,1.3,0.4,2.6,0.6,3.9
			c0.2,1.3,0.4,2.6,0.6,3.9c0.1,0.6,0.3,1.3,0.4,1.9c0.1,0.6,0.2,1.3,0.3,2c0.1,0.6,0.1,1.3,0.2,1.9c0,0.3,0.1,0.6,0.1,0.9
			c0,0.3,0.1,0.6,0,0.9c-0.2,0.5-1,0.5-1.1,0c-0.1-0.3-0.1-0.5-0.1-0.8c0-0.3-0.1-0.7-0.1-1c-0.1-0.5-0.1-1-0.2-1.5
			c0-0.1,0-0.3,0-0.4c0-0.1-0.2,0-0.2,0c-0.3,0-0.6,0-1,0.1c-0.6,0-1.2,0.1-1.8,0.1c-0.1,0-0.1,0-0.1,0.1c0,0.1,0,0.3,0,0.5
			c0,0.3-0.1,0.6-0.1,1c-0.1,0.6-0.2,1.3-0.3,1.9c-0.1,0.4-0.2,0.7-0.6,0.7C37.7,17.7,37.5,17.6,37.4,17.4z M42.1,12.2
			c-0.4-2.6-0.9-5.1-1.3-7.7c-0.1,0.6-1.1,5.3-1.5,7.9C40.2,12.4,41.2,12.3,42.1,12.2z"/>
		<path class="st0" d="M50.1,16.5c0-0.5,0-1,0-1.6c0-1.1-0.1-2.3-0.1-3.4c0-2.7,0-5.3,0-8c0-0.7,0-1.3,0-2c0-0.2,0-0.5,0-0.7
			c0.1-0.2,0.3-0.4,0.6-0.4c0.5,0,1.1,0.2,1.5,0.4c0.5,0.3,0.9,0.6,1.1,1c0.6,0.9,1,2,1.2,3.1c0.2,1.2,0.3,2.5,0.2,3.7
			c-0.1,1-0.3,2.1-0.9,3.1c-0.2,0.4-0.5,0.7-0.9,1c-0.3,0.3-0.7,0.4-1.1,0.5c-0.2,0-0.3,0.1-0.5,0.1c0,0,0,0.2,0,0.3
			c0,0.4,0,0.7,0,1.1c0,0.6,0,1.3,0,2c0,0.4-0.1,0.9-0.6,0.9C50.1,17.5,50,16.9,50.1,16.5z M52.9,10.6c0.4-0.9,0.5-1.9,0.6-2.8
			c0-1.2-0.1-2.4-0.4-3.6c-0.2-0.9-0.7-2-1.6-2.4c-0.1,0-0.2-0.1-0.3-0.1c0,0.2,0,7,0,10.4C52.1,12.1,52.6,11.4,52.9,10.6z"/>
		<path class="st0" d="M57.3,17.1c-0.3,0-0.5,0-0.6-0.3s-0.1-0.5-0.1-0.8c0-0.3,0-0.6,0-1c0-1.3,0-2.5,0-3.8c0-2.6-0.1-5.3-0.2-7.9
			c0-0.6,0-1.2,0-1.8c0-0.3,0-0.6,0.1-0.8c0.1-0.2,0.4-0.3,0.6-0.3c0.6,0.1,0.5,0.9,0.5,1.3c0,0.6,0,1.2,0,1.8c0,2.5,0.1,5,0.2,7.6
			c0,1.6,0,3.2,0,4.7c0.5,0,1,0,1.6,0c0.4,0,1-0.1,1.1,0.4c0.2,0.5-0.3,0.8-0.7,0.8c-0.5,0-1.1,0-1.6,0
			C57.9,17.2,57.6,17.1,57.3,17.1z"/>
		<path class="st0" d="M62.4,17.4c-0.1-0.3,0-0.6,0-0.9c0.1-0.6,0.2-1.2,0.3-1.8c0.2-1.2,0.4-2.5,0.6-3.7c0.4-2.3,0.8-4.6,1.2-7
			c0.1-0.6,0.2-1.1,0.3-1.7c0.1-0.5,0.2-1.1,0.4-1.5c0.2-0.3,0.7-0.6,1-0.2c0.3,0.3,0.2,0.9,0.3,1.3c0.2,1.3,0.4,2.6,0.6,3.9
			c0.2,1.3,0.4,2.6,0.6,3.9c0.1,0.6,0.3,1.3,0.4,1.9c0.1,0.6,0.2,1.3,0.3,2c0.1,0.6,0.1,1.3,0.2,1.9c0,0.3,0.1,0.6,0.1,0.9
			c0,0.3,0.1,0.6,0,0.9c-0.2,0.5-1,0.5-1.1,0c-0.1-0.3-0.1-0.5-0.1-0.8c0-0.3-0.1-0.7-0.1-1c-0.1-0.5-0.1-1-0.2-1.5
			c0-0.1,0-0.3,0-0.4c0-0.1-0.2,0-0.2,0c-0.3,0-0.6,0-1,0.1c-0.6,0-1.2,0.1-1.8,0.1c-0.1,0-0.1,0-0.1,0.1c0,0.1,0,0.3,0,0.5
			c0,0.3-0.1,0.6-0.1,1c-0.1,0.6-0.2,1.3-0.3,1.9c-0.1,0.4-0.2,0.7-0.6,0.7C62.7,17.7,62.5,17.6,62.4,17.4z M67.1,12.2
			c-0.4-2.6-0.9-5.1-1.3-7.7c-0.1,0.6-1.1,5.3-1.5,7.9C65.2,12.4,66.1,12.3,67.1,12.2z"/>
		<path class="st0" d="M75.3,17.4c-0.2-0.4-0.3-0.8-0.4-1.2c-0.3-1.1-0.7-2.2-1-3.3c-0.4-1.1-0.6-2.2-1-3.3
			c-0.3-1.1-0.7-2.2-1.1-3.2c0.1,2.4,0.1,4.8,0.2,7.2c0,1.2,0.1,2.3,0,3.5c0,0.5-0.3,0.9-0.8,0.7c-0.4-0.1-0.4-0.6-0.4-0.9
			c0-1.3,0-2.6,0-3.8c0-1.2,0-2.4-0.1-3.7c0-2.6-0.1-5.1-0.2-7.6c0-0.5-0.1-1.2,0.6-1.2c0.4,0,0.6,0.4,0.6,0.7
			c0.2,1.2,0.6,2.5,0.9,3.7c0.4,1.3,0.8,2.5,1.2,3.7c0.4,1.2,0.8,2.5,1.2,3.8c0.2,0.5,0.3,1,0.5,1.6c0-1.3-0.1-2.6-0.2-3.9
			c-0.1-1.3-0.1-2.6-0.2-3.9C75.1,5,75,3.8,75,2.7c0-0.3,0-0.6,0-0.9c0-0.2,0-0.5,0.1-0.7c0.3-0.5,1-0.3,1.1,0.2c0,0.3,0,0.6,0,0.9
			c0,0.3,0,0.7,0,1c0,0.6,0.1,1.3,0.1,2c0,1.3,0.1,2.7,0.2,4c0.1,2.4,0.3,4.8,0.3,7.2c0,0.6,0.2,1.7-0.6,1.7
			C75.7,18,75.5,17.7,75.3,17.4z"/>
		<path class="st0" d="M81.5,16.7c-0.1-0.3,0-0.6,0-1c0-0.6,0-1.1,0-1.7c-0.1-1.3-0.1-2.6-0.2-3.9c-0.1-1.3-0.2-2.6-0.3-3.9
			C81,5,80.9,3.7,81,2.4c0,0,0-0.1,0-0.1c-0.6,0-1.1,0.1-1.6,0c-0.5,0-0.9-0.6-0.5-1c0.2-0.3,0.7-0.2,1-0.2c0.6,0,1.1,0,1.6-0.1
			c0.6,0,1.1-0.1,1.7-0.1c0.3,0,0.6,0,0.8,0s0.5,0,0.7,0.2c0.1,0.2,0.2,0.5,0,0.7s-0.4,0.3-0.6,0.3c-0.6,0-1.2,0-1.9,0.1
			c-0.1,0-0.1,0-0.1,0.1c0,0.1,0,0.3,0,0.5c0,0.6,0,1.2,0,1.7c0,1.2,0.1,2.3,0.2,3.5c0.2,2.3,0.3,4.5,0.4,6.8c0,0.5,0,1,0,1.5
			c0,0.4-0.2,0.9-0.6,0.9C81.9,17.1,81.6,17,81.5,16.7z"/>
	</g>
	<path class="st0" d="M93.4,10.1c0,0,0-0.6-0.5-0.5c-0.5,0-2.6,0-2.6,0c0.4-0.1,2.9-2.8,2.6-5.1c0-0.1-0.4-0.3-0.5-0.2
		c-1,0.4-1.9,1.2-2.3,2c-0.1-1.9-0.9-4-2.4-5.3c-0.1-0.1-0.5,0-0.5,0.2c-0.8,3.5,1.7,8.4,2,8.4c0,0-1.8,0-2.2,0
		c-0.4,0-0.6,0.3-0.6,0.4c-0.1,2.2,0.2,4.8,1,6.6c0.1,0.2,0.1,0.5,0.6,0.5c1,0,2.4,0.1,3.5,0.1c0.6,0,0.8-0.2,0.8-0.3
		C93.2,15.1,93.6,12.5,93.4,10.1z M92.1,5.6c0,0.8-1.1,2.6-1.7,3C90.5,7.9,90.9,6.2,92.1,5.6z M88.1,2.9C89,4.2,89.4,6.6,89.4,8
		C88.9,6.9,88.1,4.6,88.1,2.9z M91.5,16.1c-1,0-2.4,0-3.2-0.1c-0.6-1.4-0.7-3.4-0.7-5.4h4.8C92.4,12.7,92.1,14.7,91.5,16.1z"/>
</g>
</svg>
