<?xml version="1.0" encoding="utf-8"?>
<!-- Generator: Adobe Illustrator 24.2.1, SVG Export Plug-In . SVG Version: 6.00 Build 0)  -->
<svg version="1.1" id="Logo2" xmlns="http://www.w3.org/2000/svg" xmlns:xlink="http://www.w3.org/1999/xlink" x="0px" y="0px"
	 viewBox="0 0 426 103.5" style="enable-background:new 0 0 426 103.5;" xml:space="preserve">
<style type="text/css">
	.st0{fill:#FFFFFF;}
</style>
<g>
	<g>
		<path class="st0" d="M12.9,85c0.1-1.1,0.4-2.3,0.4-3.4c0-1.5,0.1-3,0.1-4.5c0-4.3-0.1-8.6-0.2-12.8c-0.2-10.2-0.4-20.5-0.4-30.6
			c-0.1-5.3-0.1-10.6,0.2-16c0.1-2.3,1.3-3.7,3.6-4c2.5-0.5,5.1,0.3,7.3,1.5c4,2.2,6.9,6.1,8.5,10.3c1.8,4.8,1.7,10.1,1,15.1
			c-0.9,6.7-3.4,13.3-8.8,17.5c3.7,1.5,7.3,4.2,9.2,7.7c1.6,3.2,1.7,7.1,0.9,10.5c-0.7,3.3-2.2,6.8-5.1,8.8
			c-3.4,2.3-7.7,2.4-11.6,2.4C16.1,87.7,12.8,87.8,12.9,85z M28.3,40.2c0.5-4.2,0.8-8.9-0.7-12.9c-1.5-3.8-5.2-8.3-9.6-8.6
			c0,0.4,0,25.3,0.2,37.8C24.6,53.9,27.4,46.6,28.3,40.2z M26.2,81.4c2.6-1.4,3.5-4.7,3.8-7.4c0.3-2.8-0.2-5.8-2.4-7.9
			c-2.5-2.5-5.7-3.8-9.3-3.9c0,3.9,0.4,13.6,0,20.4C20.9,82.6,23.9,82.6,26.2,81.4z"/>
		<path class="st0" d="M58.5,86.5c-0.8-1.5-1.9-2.9-2.7-4.5c-2.1-3.5-4-7.2-5.9-10.9c0.1,2.7,0.2,5.5,0.3,8.4c0.1,2,0.4,4.2,0.1,6.3
			c-0.2,1.9-1.7,3.9-3.9,2.8c-1-0.5-1.4-1.6-1.3-2.6c0.1-1.5,0.1-2.8,0.1-4.2c-0.1-5.6-0.5-11.3-0.6-16.9s-0.2-11.4-0.3-17
			s-0.4-11.3-0.6-16.8c-0.1-2.8-0.2-5.6-0.1-8.5c0-1.4,0-2.6,0-3.9c0-1,0-2.2,0.7-3c0.9-1,2.6-1,4-1c2.4,0.1,4.7,0.7,6.8,2
			c4,2.3,6.7,6.4,7.9,10.7c0.9,3.3,1.1,6.7,1.4,10.1c0.3,3.4,0.3,7-0.4,10.5c-0.6,3.2-2,6.2-3.9,8.9c-2.1,2.9-4.9,5.6-8.1,7.2
			c2.3,4.6,4.9,9,7.3,13.5c1.3,2.2,2.4,4.4,4,6.4c0.6,0.9,1.3,2,0.9,3.1c-0.3,1-1.3,1.9-2.4,1.9C60.2,89,59.2,87.7,58.5,86.5z
			 M49.6,59.6c1.9-0.7,3.4-2.3,4.8-3.9c1.5-1.5,2.6-3.1,3.4-5c1.6-3.8,1.8-8,1.6-12c-0.3-4.1-0.6-8.6-2.4-12.3
			c-1.6-3.3-4.4-6.4-8.4-6.6c0,2.1,0.2,10.3,0.3,15.4C49.3,43.4,49.5,51.5,49.6,59.6z"/>
		<path class="st0" d="M72.9,88.7c-0.5-1.1-0.1-2.7-0.1-4c0.1-2.4,0.1-4.7,0.2-7.1c0-5.6,0.1-11.2,0.2-16.7
			c0.1-5.6,0.3-11.3,0.3-16.8c0-5.7-0.5-11.4-0.6-17c0-1.9-0.2-4.3,0.5-5.9c0.9-2.1,4.1-2,4.7,0.3c0.3,0.9,0,2.1,0,3
			c-0.1,1.5-0.1,3,0,4.5c0,2.8,0.2,5.5,0.3,8.4c0.3,5.7,0.2,11.4,0.1,17c-0.2,5.7-0.3,11.5-0.4,17.2c0,3.8,0,7.6-0.1,11.4
			c-0.1,2.1,0.5,7.2-2.7,7.2C74.3,90.2,73.4,89.6,72.9,88.7z"/>
		<path class="st0" d="M107.9,88.5c-0.8-1.7-1.2-3.5-1.8-5.3c-1.5-4.7-2.9-9.5-4.4-14.2c-1.6-4.7-2.8-9.4-4.4-14.1
			c-1.5-4.7-3.2-9.3-4.7-14c0.3,10.3,0.5,20.6,0.7,30.9c0,5,0.3,10,0,14.9c-0.1,2-1.4,3.8-3.5,3c-1.7-0.5-1.7-2.3-1.6-3.7
			c0.1-5.5-0.1-11.1-0.1-16.5C88,64.2,87.9,59,87.8,53.6c-0.2-11-0.4-21.9-0.8-32.9c0-2-0.5-5.3,2.4-5.3c1.8,0,2.5,1.8,2.8,3.2
			c1,5.3,2.4,10.6,3.9,15.9c1.6,5.4,3.3,10.7,5.1,16.1c1.9,5.3,3.5,10.9,5.2,16.3c0.7,2.2,1.4,4.5,2.1,6.8c-0.2-5.7-0.5-11.4-0.8-17
			c-0.3-5.5-0.4-11.1-0.7-16.7c-0.2-5-0.6-10-0.7-15c0-1.3,0-2.6,0-3.9c0-0.9-0.1-2,0.4-2.9c1.1-2.1,4.2-1.4,4.7,0.8
			c0.2,1.1,0.1,2.5,0.1,3.7c-0.1,1.5-0.1,2.9,0,4.4c0.1,2.8,0.3,5.6,0.4,8.5c0.2,5.7,0.4,11.5,0.7,17.1c0.5,10.4,1.4,20.8,1.1,31.1
			c0,2.4,0.8,7.3-2.8,7.3C109.3,91,108.4,89.9,107.9,88.5z"/>
		<path class="st0" d="M126.9,83.9c-2.5-4.3-3.8-9.2-4.2-14.1c-0.5-5.3-0.4-10.7-0.2-16.2c0.2-5.3,0.7-10.7,1.5-16.1
			c0.7-4.9,1.7-10,4-14.5c1.8-3.5,5.3-8.1,9.8-6.3c1.9,0.7,3.4,2.6,4.1,4.5c0.7,1.9-0.1,4.3-2.4,4.1c-1-0.1-1.9-0.7-2.2-1.7
			c-0.3-0.5-0.7-2.5-1.7-2.2c-0.9,0.3-1.7,1.6-2.2,2.3c-0.6,1-1,2.1-1.6,3.2c-1.9,4.5-2.6,9.5-3.2,14.4c-0.6,5.2-0.9,10.5-1,15.9
			c-0.1,5.5-0.2,11.2,1,16.6c0.5,2.4,1.4,4.8,2.5,7.1c0.9,1.8,2.6,4.5,5,3.8c3.1-0.8,3.3-5.7,3.4-8.4c0.2-3.7-0.1-7.4-0.4-11.1
			c-1.3,0.2-2.5,0.4-3.8,0.4c-1.1,0-2.4,0.1-3.3-0.8c-1.8-1.7-0.3-4.3,2-4.3c1.3-0.1,2.4,0,3.7-0.2c1.3-0.1,2.6-0.7,4-0.7
			c2.8,0,2.5,3.3,2.6,5.3c0.4,4.8,0.9,9.8,0.1,14.7c-0.6,4.5-2.9,9.6-8.1,10.2c-0.2,0-0.5,0-0.7,0C131.6,90,128.6,87,126.9,83.9z"/>
		<path class="st0" d="M171.3,88.3c-0.5-1.1,0-2.5,0.2-3.7c0.5-2.6,1-5.2,1.5-7.8c0.9-5.3,1.7-10.6,2.5-16c1.6-10,3.4-19.9,5.2-30
			c0.4-2.4,0.8-4.8,1.4-7.2c0.4-2.2,0.7-4.6,1.7-6.6c0.8-1.5,2.9-2.5,4.2-0.9c1.3,1.4,0.9,3.8,1.1,5.4c0.7,5.6,1.7,11.2,2.5,16.7
			c0.9,5.5,1.6,11.2,2.7,16.6c0.5,2.8,1.1,5.5,1.7,8.2c0.4,2.8,0.8,5.6,1.1,8.5c0.3,2.7,0.6,5.4,1,8c0.2,1.4,0.4,2.6,0.6,3.9
			c0.1,1.3,0.5,2.8,0.1,4c-0.8,2.3-4.2,2.2-4.8-0.1c-0.3-1.1-0.3-2.3-0.5-3.4c-0.2-1.5-0.3-2.9-0.5-4.4c-0.3-2.2-0.5-4.3-0.8-6.4
			c-0.1-0.6-0.1-1.3-0.2-1.9c0-0.3-0.8-0.1-1-0.1c-1.4,0.1-2.7,0.2-4.2,0.3c-2.5,0.2-5.2,0.6-7.7,0.4c-0.6-0.1-0.5,0-0.6,0.5
			c0,0.6-0.1,1.4-0.2,2c-0.2,1.4-0.4,2.7-0.6,4.1c-0.4,2.7-0.7,5.4-1.3,8c-0.3,1.6-0.9,3.2-2.8,3.2
			C172.6,89.8,171.7,89.1,171.3,88.3z M191.3,66c-1.7-11.2-3.9-22.1-5.7-33.3c-0.4,2.5-4.6,22.7-6.3,34.1
			C183.2,66.7,187.3,66.4,191.3,66z"/>
		<path class="st0" d="M225.7,84.4c0.1-2.3,0.1-4.5,0.1-6.7c-0.2-4.9-0.4-9.9-0.4-14.8c-0.1-11.5,0-23,0.1-34.3c0-2.9,0-5.7,0-8.6
			c0-1-0.2-2.2,0.2-3.1c0.4-1,1.4-1.6,2.5-1.7c2.1-0.1,4.6,0.8,6.4,1.8c2,1.1,3.7,2.6,4.9,4.4c2.8,3.8,4.2,8.6,5,13.2
			c1,5.2,1.3,10.7,0.7,16.1c-0.3,4.5-1.4,9.2-3.7,13.2c-0.9,1.7-2.2,3.2-3.8,4.4c-1.5,1.1-3.1,1.7-4.9,2.2c-0.7,0.2-1.5,0.3-2.2,0.5
			c-0.2,0-0.1,0.9-0.1,1.1c0,1.6,0.1,3,0.1,4.6c0.1,2.8,0.1,5.6,0.1,8.5c-0.1,1.8-0.3,4-2.6,4C225.7,89,225.5,86.3,225.7,84.4z
			 M238,59.3c1.6-3.8,2.3-8,2.4-12.1c0.2-5.1-0.3-10.4-1.8-15.3c-1-4-2.9-8.5-6.8-10.4c-0.4-0.2-0.8-0.4-1.3-0.5
			c0,0.9-0.2,30-0.1,44.9C234.3,65.5,236.7,62.6,238,59.3z"/>
		<path class="st0" d="M257,87.1c-1.1-0.1-2.2-0.2-2.8-1.1s-0.5-2.2-0.5-3.3c0-1.5,0-2.8,0-4.3c0-5.4-0.1-10.9-0.2-16.3
			c-0.2-11.4-0.6-22.8-0.7-34c0-2.7,0-5.3,0-7.9c-0.1-1.1-0.1-2.4,0.5-3.3c0.5-0.9,1.7-1.4,2.6-1.1c2.6,0.5,2,3.7,2,5.6
			c0,2.6,0,5.2,0,7.8c0.1,10.9,0.6,21.7,0.7,32.7c0.1,6.8,0.2,13.6,0.2,20.4c2.3,0.1,4.5,0,6.7-0.1c1.8,0,4.2-0.4,4.9,1.8
			c0.7,2.1-1.3,3.3-3.1,3.4c-2.3,0-4.6,0.1-6.8,0.1C259.3,87.4,258.2,87.3,257,87.1z"/>
		<path class="st0" d="M279,88.3c-0.5-1.1,0-2.5,0.2-3.7c0.5-2.6,1-5.2,1.5-7.8c0.9-5.3,1.7-10.6,2.5-16c1.6-10,3.4-19.9,5.2-30
			c0.4-2.4,0.8-4.8,1.4-7.2c0.4-2.2,0.7-4.6,1.7-6.6c0.8-1.5,2.9-2.5,4.2-0.9c1.3,1.4,0.9,3.8,1.1,5.4c0.7,5.6,1.7,11.2,2.5,16.7
			c0.9,5.5,1.6,11.2,2.7,16.6c0.5,2.8,1.1,5.5,1.7,8.2c0.4,2.8,0.8,5.6,1.1,8.5c0.3,2.7,0.6,5.4,1,8c0.2,1.4,0.4,2.6,0.6,3.9
			c0.1,1.3,0.5,2.8,0.1,4c-0.8,2.3-4.2,2.2-4.8-0.1c-0.3-1.1-0.3-2.3-0.5-3.4c-0.2-1.5-0.3-2.9-0.5-4.4c-0.3-2.2-0.5-4.3-0.8-6.4
			c-0.1-0.6-0.1-1.3-0.2-1.9c0-0.3-0.8-0.1-1-0.1c-1.4,0.1-2.7,0.2-4.2,0.3c-2.5,0.2-5.2,0.6-7.7,0.4c-0.6-0.1-0.5,0-0.6,0.5
			c0,0.6-0.1,1.4-0.2,2c-0.2,1.4-0.4,2.7-0.6,4.1c-0.4,2.7-0.7,5.4-1.3,8c-0.3,1.6-0.9,3.2-2.8,3.2C280.2,89.8,279.4,89.1,279,88.3z
			 M298.9,66c-1.7-11.2-3.9-22.1-5.7-33.3c-0.4,2.5-4.6,22.7-6.3,34.1C290.9,66.7,294.9,66.4,298.9,66z"/>
		<path class="st0" d="M334.6,88.5c-0.7-1.7-1.1-3.5-1.8-5.3c-1.5-4.7-2.9-9.5-4.4-14.2c-1.6-4.7-2.8-9.4-4.4-14.1
			c-1.5-4.7-3.2-9.3-4.7-14c0.3,10.3,0.5,20.6,0.7,30.9c0,5,0.3,10,0,14.9c-0.1,2-1.4,3.8-3.5,3c-1.7-0.5-1.7-2.4-1.6-3.8
			c0.1-5.5-0.1-11.1-0.1-16.5c-0.1-5.3-0.2-10.5-0.3-15.9c-0.2-11-0.4-21.9-0.8-32.9c0-2-0.5-5.3,2.4-5.3c1.8,0,2.5,1.8,2.8,3.2
			c1,5.3,2.4,10.6,3.9,15.9c1.6,5.4,3.3,10.7,5.1,16.1c1.9,5.3,3.6,10.9,5.2,16.3c0.7,2.2,1.4,4.5,2.1,6.8c-0.2-5.7-0.5-11.4-0.8-17
			c-0.3-5.5-0.4-11.1-0.7-16.7c-0.2-5-0.6-10-0.7-15c0-1.3,0-2.6,0-3.9c0-0.9-0.1-2,0.4-2.9c1.1-2.1,4.2-1.4,4.7,0.8
			c0.2,1.1,0.1,2.5,0.1,3.7c-0.1,1.5-0.1,2.9,0,4.4c0.1,2.8,0.3,5.6,0.4,8.5c0.2,5.7,0.4,11.5,0.7,17.1c0.5,10.4,1.4,20.8,1.1,31.1
			c0,2.4,0.8,7.3-2.8,7.3C336,91,335.1,89.9,334.6,88.5z"/>
		<path class="st0" d="M361.3,85.6c-0.5-1.4,0.1-2.8,0.2-4.1c0-2.5-0.1-4.9-0.2-7.3c-0.3-5.5-0.5-11.2-0.9-16.7
			c-0.3-5.7-0.8-11.4-1.1-17c-0.3-5.5-0.7-11.2-0.4-16.7c0-0.2,0.1-0.4,0.1-0.6c-2.4,0.1-4.8,0.3-7.1,0.2c-2.1,0-3.8-2.5-2.1-4.3
			c1-1.1,2.9-0.8,4.4-0.8c2.4,0,4.7-0.2,7-0.4c2.5-0.2,4.9-0.4,7.3-0.5c1.1,0,2.4-0.1,3.5-0.1s2.3,0.1,2.9,1s0.7,2.2,0.1,3
			c-0.6,0.8-1.7,1.1-2.6,1.1c-2.7-0.1-5.3,0.1-8,0.3c-0.4,0-0.3,0.2-0.4,0.6c0,0.6,0,1.4,0,2c-0.1,2.5,0,5,0.1,7.5
			c0.1,5,0.5,10.1,0.8,15.1c0.7,9.7,1.3,19.4,1.7,29.1c0.1,2.1,0.2,4.3,0,6.3c-0.1,1.8-0.8,3.8-2.8,3.8
			C362.7,87.1,361.7,86.5,361.3,85.6z"/>
	</g>
	<path class="st0" d="M412.6,57c0,0,0.2-2.4-2.1-2.2c-2.3,0.1-11.2,0-11.2,0c1.8-0.6,12.4-11.9,11.4-21.9c-0.1-0.6-1.7-1.3-2.3-1
		c-4.3,1.8-8,5-9.7,8.8c-0.4-8.1-3.7-17.2-10.5-22.8c-0.5-0.4-2,0.1-2.2,0.8c-3.3,15,7.3,36.1,8.7,36.2c0,0-7.6,0-9.5,0
		c-1.9,0.1-2.4,1.2-2.4,1.8c-0.4,9.6,0.9,20.8,4.1,28.4c0.3,0.7,0.4,2.1,2.5,2.1c4.3,0.1,10.2,0.3,15.2,0.5c2.7,0.1,3.3-1,3.6-1.5
		C411.5,78.5,413.1,67.1,412.6,57z M406.6,37.4c0,3.6-4.7,11.4-7.4,12.9C399.9,47.4,401.6,40.3,406.6,37.4z M389.7,25.8
		c3.9,5.8,5.6,16.3,5.6,22.1C393,43,389.6,33.4,389.7,25.8z M404.4,83c-4.1-0.1-10.3-0.2-13.9-0.4c-2.4-6-3.2-14.7-3.1-23.2h20.7
		C408.2,68.1,406.8,77,404.4,83z"/>
</g>
</svg>
